<svg width="64" height="64" fill="none" xmlns="http://www.w3.org/2000/svg"><path d="M57.6 16.817H6.4A2.383 2.383 0 004.017 19.2v25.6A2.384 2.384 0 006.4 47.183h51.2a2.384 2.384 0 002.383-2.383V19.2a2.383 2.383 0 00-2.383-2.383zM.25 19.2a6.15 6.15 0 016.15-6.15h51.2a6.15 6.15 0 016.15 6.15v25.6a6.15 6.15 0 01-6.15 6.15H6.4A6.15 6.15 0 01.25 44.8V19.2zm8.533 2.383h3.767v3.767H8.783v-3.767zm8.534 3.767v-3.767h3.766v3.767h-3.766zm8.533-3.767h3.767v3.767H25.85v-3.767zm8.533 3.767v-3.767h3.767v3.767h-3.767zm8.534-3.767h3.766v3.767h-3.766v-3.767zm8.533 3.767v-3.767h3.767v3.767H51.45zm-4.267 4.767h3.767v3.766h-3.767v-3.766zm4.267 12.3V38.65h3.767v3.767H51.45zm-12.8-12.3h3.767v3.766H38.65v-3.766zm-8.533 3.766v-3.766h3.766v3.766h-3.766zm-8.534-3.766h3.767v3.766h-3.767v-3.766zm-8.533 3.766v-3.766h3.767v3.766H13.05zM8.783 38.65h3.767v3.767H8.783V38.65zm8.534 3.767V38.65h29.366v3.767H17.317z" fill="url(#prefix__paint0_linear_1203_292)" stroke="#000" stroke-width=".5"/><defs><linearGradient id="prefix__paint0_linear_1203_292" x1="64" y1="12.8" x2="2.133" y2="49.067" gradientUnits="userSpaceOnUse"><stop stop-color="#FFF503"/><stop offset="1" stop-color="#F9A400"/></linearGradient></defs></svg>